G04*
G04 #@! TF.GenerationSoftware,Altium Limited,Altium Designer,21.4.1 (30)*
G04*
G04 Layer_Color=65535*
%FSLAX44Y44*%
%MOMM*%
G71*
G04*
G04 #@! TF.SameCoordinates,A23704D9-3B07-4A98-9CB1-AFE0F965C356*
G04*
G04*
G04 #@! TF.FilePolarity,Positive*
G04*
G01*
G75*
%ADD10C,0.2000*%
%ADD11C,0.4000*%
%ADD12C,0.1270*%
%ADD13C,0.2540*%
D10*
X462046Y88760D02*
G03*
X496055Y88310I17144J10300D01*
G01*
Y109810D02*
G03*
X462620Y110260I-16865J-10750D01*
G01*
X10830Y218050D02*
G03*
X10830Y218050I25000J0D01*
G01*
X134135Y51090D02*
G03*
X167570Y50640I16865J10750D01*
G01*
X168144Y72140D02*
G03*
X134135Y72590I-17144J-10300D01*
G01*
X439328Y105125D02*
G03*
X413821Y105463I-12858J-7725D01*
G01*
Y89338D02*
G03*
X438897Y89000I12649J8063D01*
G01*
X142630Y118750D02*
Y168750D01*
X157630Y118750D02*
Y168750D01*
X142630D01*
X157630Y118750D02*
X142630D01*
X372610Y167130D02*
X322610D01*
X372610Y152130D02*
X322610D01*
X372610D02*
Y167130D01*
X322610Y152130D02*
Y167130D01*
X372610Y186420D02*
X322610D01*
X372610Y201420D02*
X322610D01*
Y186420D02*
Y201420D01*
X372610Y186420D02*
Y201420D01*
X258390Y41680D02*
X213390D01*
Y139180D01*
X258390D02*
X213390D01*
X258390Y41680D02*
Y139180D01*
X112540Y180100D02*
X112540Y42600D01*
X20040D01*
Y180100D01*
X112540D02*
X20040D01*
X145280Y223010D02*
X95280D01*
X145280Y208010D02*
X95280D01*
X145280D02*
Y223010D01*
X95280Y208010D02*
Y223010D01*
X283080Y164080D02*
X183080D01*
Y244080D01*
X283080D02*
X183080D01*
X283080Y164080D02*
Y244080D01*
X393006Y32125D02*
Y122125D01*
X303006D01*
Y32125D02*
Y122125D01*
X393006Y32125D02*
X303006D01*
X393006D02*
Y122125D01*
X303006D01*
Y32125D02*
Y122125D01*
X393006Y32125D02*
X303006D01*
X407070Y164080D02*
Y244080D01*
X507070Y164080D02*
X407070D01*
X507070D02*
Y244080D01*
X407070D01*
X481830Y45450D02*
Y60450D01*
X431830Y45450D02*
Y60450D01*
X481830D02*
X431830D01*
X481830Y45450D02*
X431830D01*
X129831Y115964D02*
X131497Y114298D01*
Y110966D01*
X129831Y109300D01*
X128165D01*
X126498Y110966D01*
Y114298D01*
X124832Y115964D01*
X123166D01*
X121500Y114298D01*
Y110966D01*
X123166Y109300D01*
X136700Y196597D02*
Y189932D01*
X133368Y186600D01*
X130035Y189932D01*
Y196597D01*
X120039Y194931D02*
X121705Y196597D01*
X125037D01*
X126703Y194931D01*
Y188266D01*
X125037Y186600D01*
X121705D01*
X120039Y188266D01*
X110042Y194931D02*
X111708Y196597D01*
X115040D01*
X116706Y194931D01*
Y188266D01*
X115040Y186600D01*
X111708D01*
X110042Y188266D01*
X96713Y186600D02*
Y196597D01*
X91714D01*
X90048Y194931D01*
Y191598D01*
X91714Y189932D01*
X96713D01*
X93381D02*
X90048Y186600D01*
X80052Y196597D02*
X86716D01*
Y186600D01*
X80052D01*
X86716Y191598D02*
X83384D01*
X76719Y196597D02*
Y186600D01*
X70055D01*
X60058Y196597D02*
X66722D01*
Y186600D01*
X60058D01*
X66722Y191598D02*
X63390D01*
X57765Y27069D02*
X56098Y25403D01*
X52766D01*
X51100Y27069D01*
Y33734D01*
X52766Y35400D01*
X56098D01*
X57765Y33734D01*
Y30402D01*
X54432D01*
X61097Y35400D02*
Y25403D01*
X67761Y35400D01*
Y25403D01*
X71094D02*
Y35400D01*
X76092D01*
X77758Y33734D01*
Y27069D01*
X76092Y25403D01*
X71094D01*
X300697Y191000D02*
X290700D01*
Y197665D01*
X300697Y200997D02*
X290700D01*
Y205995D01*
X292366Y207661D01*
X299031D01*
X300697Y205995D01*
Y200997D01*
X290700Y210994D02*
X300697D01*
Y215992D01*
X299031Y217658D01*
X295698D01*
X294032Y215992D01*
Y210994D01*
Y214326D02*
X290700Y217658D01*
X295698Y220990D02*
Y227655D01*
X290700Y237652D02*
Y230987D01*
X297365Y237652D01*
X299031D01*
X300697Y235986D01*
Y232653D01*
X299031Y230987D01*
X175897Y195700D02*
X165900D01*
Y202365D01*
X175897Y205697D02*
X165900D01*
Y210695D01*
X167566Y212361D01*
X174231D01*
X175897Y210695D01*
Y205697D01*
X165900Y215693D02*
X175897D01*
Y220692D01*
X174231Y222358D01*
X170898D01*
X169232Y220692D01*
Y215693D01*
Y219026D02*
X165900Y222358D01*
X170898Y225690D02*
Y232355D01*
X165900Y235687D02*
Y239019D01*
Y237353D01*
X175897D01*
X174231Y235687D01*
X397831Y220564D02*
X399497Y218898D01*
Y215566D01*
X397831Y213900D01*
X391166D01*
X389500Y215566D01*
Y218898D01*
X391166Y220564D01*
X394498D01*
Y217232D01*
X389500Y223897D02*
X399497D01*
X389500Y230561D01*
X399497D01*
Y233894D02*
X389500D01*
Y238892D01*
X391166Y240558D01*
X397831D01*
X399497Y238892D01*
Y233894D01*
X524097Y213600D02*
X517432D01*
X514100Y216932D01*
X517432Y220264D01*
X524097D01*
X522431Y230261D02*
X524097Y228595D01*
Y225263D01*
X522431Y223597D01*
X515766D01*
X514100Y225263D01*
Y228595D01*
X515766Y230261D01*
X522431Y240258D02*
X524097Y238592D01*
Y235260D01*
X522431Y233594D01*
X515766D01*
X514100Y235260D01*
Y238592D01*
X515766Y240258D01*
D11*
X248890Y131680D02*
G03*
X248890Y131680I2000J0D01*
G01*
D12*
X474930Y134350D02*
X437430D01*
Y149350D01*
X474930D02*
X437430D01*
X474930Y134350D02*
Y149350D01*
X442430Y134350D02*
Y149350D01*
D13*
X450956Y75081D02*
X452645Y73439D01*
X452692Y70107D01*
X451050Y68418D01*
X444386Y68323D01*
X442697Y69965D01*
X442649Y73297D01*
X444292Y74987D01*
X442484Y84959D02*
X442578Y78295D01*
X449148Y85053D01*
X450814Y85077D01*
X452503Y83435D01*
X452551Y80103D01*
X450908Y78413D01*
X335860Y145038D02*
X332528D01*
X334194D01*
Y140040D01*
X330862D02*
Y145038D01*
X328363D01*
X327529Y144205D01*
Y142539D01*
X328363Y141706D01*
X330862D01*
X510332Y72300D02*
X511998Y70634D01*
Y67302D01*
X510332Y65635D01*
X503668D01*
X502002Y67302D01*
Y70634D01*
X503668Y72300D01*
X502002Y75632D02*
Y78965D01*
Y77298D01*
X511998D01*
X510332Y75632D01*
X40828Y209719D02*
X30832D01*
Y214718D01*
X32498Y216384D01*
X39162D01*
X40828Y214718D01*
Y209719D01*
X30832Y226381D02*
Y219716D01*
X37496Y226381D01*
X39162D01*
X40828Y224715D01*
Y221382D01*
X39162Y219716D01*
X145132Y136059D02*
X155128D01*
Y141058D01*
X153462Y142724D01*
X150130D01*
X148464Y141058D01*
Y136059D01*
Y139392D02*
X145132Y142724D01*
Y151054D02*
X155128D01*
X150130Y146056D01*
Y152721D01*
X356581Y154632D02*
Y164628D01*
X351582D01*
X349916Y162962D01*
Y159630D01*
X351582Y157964D01*
X356581D01*
X353248D02*
X349916Y154632D01*
X339919D02*
X346584D01*
X339919Y161296D01*
Y162962D01*
X341586Y164628D01*
X344918D01*
X346584Y162962D01*
X354915Y188922D02*
Y198918D01*
X349916D01*
X348250Y197252D01*
Y193920D01*
X349916Y192254D01*
X354915D01*
X351582D02*
X348250Y188922D01*
X344918D02*
X341586D01*
X343252D01*
Y198918D01*
X344918Y197252D01*
X241884Y89698D02*
Y81368D01*
X240218Y79702D01*
X236886D01*
X235220Y81368D01*
Y89698D01*
X231888Y79702D02*
X228556D01*
X230222D01*
Y89698D01*
X231888Y88032D01*
X100518Y132564D02*
Y129232D01*
Y130898D01*
X92188D01*
X90522Y129232D01*
Y127565D01*
X92188Y125899D01*
X98852Y135896D02*
X100518Y137562D01*
Y140894D01*
X98852Y142561D01*
X97186D01*
X95520Y140894D01*
Y139228D01*
Y140894D01*
X93854Y142561D01*
X92188D01*
X90522Y140894D01*
Y137562D01*
X92188Y135896D01*
X127981Y210512D02*
Y220508D01*
X122982D01*
X121316Y218842D01*
Y215510D01*
X122982Y213844D01*
X127981D01*
X124648D02*
X121316Y210512D01*
X111319Y220508D02*
X117984D01*
Y215510D01*
X114652Y217176D01*
X112985D01*
X111319Y215510D01*
Y212178D01*
X112985Y210512D01*
X116318D01*
X117984Y212178D01*
X235616Y237018D02*
X238948D01*
X237282D01*
Y228688D01*
X238948Y227022D01*
X240614D01*
X242281Y228688D01*
X225619Y227022D02*
X232284D01*
X225619Y233686D01*
Y235352D01*
X227285Y237018D01*
X230618D01*
X232284Y235352D01*
X172466Y35732D02*
X174132Y37398D01*
X177465D01*
X179131Y35732D01*
Y29068D01*
X177465Y27402D01*
X174132D01*
X172466Y29068D01*
X169134Y35732D02*
X167468Y37398D01*
X164135D01*
X162469Y35732D01*
Y34066D01*
X164135Y32400D01*
X165802D01*
X164135D01*
X162469Y30734D01*
Y29068D01*
X164135Y27402D01*
X167468D01*
X169134Y29068D01*
X359223Y71202D02*
Y81198D01*
X354225D01*
X352558Y79532D01*
Y76200D01*
X354225Y74534D01*
X359223D01*
X355891D02*
X352558Y71202D01*
X349226D02*
Y81198D01*
X344228D01*
X342562Y79532D01*
Y76200D01*
X344228Y74534D01*
X349226D01*
X339229Y71202D02*
X335897D01*
X337563D01*
Y81198D01*
X339229Y79532D01*
X482600Y237408D02*
X485932D01*
X484266D01*
Y229078D01*
X485932Y227412D01*
X487598D01*
X489264Y229078D01*
X479268Y227412D02*
X475936D01*
X477602D01*
Y237408D01*
X479268Y235742D01*
X462864Y146848D02*
Y136852D01*
X457866D01*
X456200Y138518D01*
Y145182D01*
X457866Y146848D01*
X462864D01*
X452868Y136852D02*
X449535D01*
X451202D01*
Y146848D01*
X452868Y145182D01*
X464531Y47952D02*
Y57948D01*
X459532D01*
X457866Y56282D01*
Y52950D01*
X459532Y51284D01*
X464531D01*
X461198D02*
X457866Y47952D01*
X454534Y56282D02*
X452868Y57948D01*
X449535D01*
X447869Y56282D01*
Y54616D01*
X449535Y52950D01*
X451202D01*
X449535D01*
X447869Y51284D01*
Y49618D01*
X449535Y47952D01*
X452868D01*
X454534Y49618D01*
M02*
