M48
;Layer_Color=9474304
;FILE_FORMAT=2:5
INCH,LZ
;TYPE=PLATED
T1F00S00C0.01772
T2F00S00C0.03150
T3F00S00C0.03937
T4F00S00C0.04724
T5F00S00C0.04921
%
T01
X0017563Y0039
X0025437Y0039
X0038988Y0038346
X0044894Y0038346
X0146457Y0024347
X0154331Y0024346
X0195894Y0080847
Y0090847
T02
X0083661Y0051181
T03
X0101894Y0020346
Y0030347
Y0040347
Y0050346
X0131894
Y0040347
Y0030347
Y0020346
X0184394Y0023661
Y0043347
Y0063032
T04
X0062665Y00195
X0083335
X0073Y0041153
T05
X0014398Y0020846
X0045894
X0045658Y0055847
X0057398Y0062846
Y0076346
X0039894Y0080347
X0020209
X001613Y0055847
X0088894Y0062846
Y0076346
X0108394Y0080347
X0128079
X0146898Y0084847
X0150894Y0072342
Y0040846
X0178394Y0084847
M30
