%TF.GenerationSoftware,Altium Limited,Altium Designer,21.4.1 (30)*%
G04 Layer_Physical_Order=1*
G04 Layer_Color=255*
%FSLAX45Y45*%
%MOMM*%
%TF.SameCoordinates,C3E97732-6F3B-4CF3-9675-2F8B214D8819*%
%TF.FilePolarity,Positive*%
%TF.FileFunction,Copper,L1,Top,Signal*%
%TF.Part,Single*%
G01*
G75*
%TA.AperFunction,SMDPad,CuDef*%
%ADD10R,2.50000X2.50000*%
%ADD11R,3.00000X3.00000*%
%TA.AperFunction,Conductor*%
%ADD12C,1.00000*%
%TA.AperFunction,TestPad*%
%ADD13C,1.50000*%
%TA.AperFunction,ComponentPad*%
%ADD14C,1.25000*%
%ADD15R,1.25000X1.25000*%
%ADD16R,1.25000X1.25000*%
%ADD17C,2.00000*%
%ADD18R,2.00000X2.00000*%
%ADD19C,2.50000*%
%ADD20C,3.00000*%
%ADD21C,1.00000*%
%ADD22R,1.00000X1.00000*%
G36*
X5270320Y60980D02*
X63680D01*
Y315294D01*
X76380Y319531D01*
X88211Y304112D01*
X240611Y151712D01*
X240612Y151711D01*
X259412Y137285D01*
X281306Y128217D01*
X304800Y125123D01*
X304802Y125124D01*
X698500D01*
X721994Y128217D01*
X743888Y137285D01*
X762689Y151711D01*
X927789Y316811D01*
X942215Y335612D01*
X951283Y357505D01*
X954376Y381000D01*
Y521199D01*
X1025850Y592673D01*
X1036012Y584875D01*
X1035241Y583538D01*
X1025700Y547931D01*
Y511069D01*
X1035241Y475462D01*
X1053672Y443538D01*
X1079738Y417472D01*
X1111662Y399041D01*
X1136006Y392518D01*
X1137085Y389912D01*
X1151511Y371112D01*
X1345511Y177112D01*
X1345512Y177111D01*
X1364312Y162685D01*
X1386206Y153617D01*
X1409700Y150524D01*
X1771310D01*
X1794805Y153617D01*
X1816698Y162685D01*
X1835499Y177111D01*
X2019914Y361527D01*
X2038543Y349079D01*
X2068571Y336641D01*
X2100449Y330300D01*
X2132951D01*
X2164829Y336641D01*
X2194857Y349079D01*
X2221882Y367136D01*
X2244864Y390119D01*
X2262921Y417143D01*
X2275359Y447171D01*
X2281700Y479049D01*
Y511551D01*
X2275359Y543429D01*
X2262921Y573457D01*
X2244864Y600481D01*
X2221882Y623464D01*
X2194857Y641521D01*
X2164829Y653959D01*
X2132951Y660300D01*
X2100449D01*
X2068571Y653959D01*
X2038543Y641521D01*
X2011519Y623464D01*
X1988536Y600481D01*
X1970479Y573457D01*
X1960346Y548993D01*
X1951221Y545214D01*
X1932421Y530788D01*
X1733710Y332076D01*
X1661996D01*
X1659469Y344776D01*
X1669857Y349079D01*
X1696882Y367136D01*
X1719864Y390119D01*
X1737921Y417143D01*
X1750359Y447171D01*
X1756700Y479049D01*
Y511551D01*
X1750359Y543429D01*
X1737921Y573457D01*
X1719864Y600481D01*
X1696882Y623464D01*
X1669857Y641521D01*
X1639829Y653959D01*
X1607951Y660300D01*
X1575449D01*
X1558457Y656920D01*
X1401889Y813489D01*
X1383088Y827915D01*
X1361195Y836983D01*
X1337700Y840076D01*
X1054100D01*
X1030605Y836983D01*
X1008712Y827915D01*
X989911Y813489D01*
X799411Y622989D01*
X784985Y604188D01*
X775917Y582294D01*
X772824Y558800D01*
Y418601D01*
X660899Y306676D01*
X355101D01*
X342401Y306677D01*
Y306677D01*
X327557Y398861D01*
X336984Y407371D01*
X349191Y404100D01*
X382209D01*
X414103Y412646D01*
X442697Y429155D01*
X466045Y452503D01*
X482554Y481098D01*
X484806Y489500D01*
X365700D01*
Y569500D01*
X484806D01*
X482554Y577903D01*
X466045Y606497D01*
X442697Y629845D01*
X414103Y646354D01*
X382209Y654900D01*
X349191D01*
X336700Y651553D01*
X324000Y661298D01*
Y817923D01*
X393402Y887324D01*
X433600D01*
X439496Y888101D01*
X548600D01*
X572695Y912195D01*
X606100D01*
X606100Y912195D01*
X606100Y912195D01*
X606102Y912194D01*
X606100Y912197D01*
Y990599D01*
X646100D01*
Y1030599D01*
X724504D01*
X716437Y1044571D01*
X700072Y1060937D01*
X680028Y1072509D01*
X657672Y1078499D01*
X634528D01*
X618800Y1074285D01*
X606100Y1082640D01*
Y1137724D01*
X969700D01*
X993194Y1140817D01*
X1015088Y1149885D01*
X1033888Y1164311D01*
X1148077Y1278500D01*
X1299700D01*
Y1558500D01*
X1019700D01*
Y1406877D01*
X932099Y1319276D01*
X525059D01*
X520199Y1331010D01*
X521728Y1332538D01*
X540159Y1364462D01*
X549700Y1400069D01*
Y1436931D01*
X545420Y1452903D01*
X577489Y1484971D01*
X591914Y1503772D01*
X600983Y1525665D01*
X604076Y1549160D01*
Y1850800D01*
X703300D01*
Y2220624D01*
X955904D01*
X958430Y2207924D01*
X930217Y2196237D01*
X901489Y2177042D01*
X877058Y2152611D01*
X857863Y2123883D01*
X844641Y2091962D01*
X842420Y2080800D01*
X1013300D01*
X1184180D01*
X1181959Y2091962D01*
X1168737Y2123883D01*
X1149542Y2152611D01*
X1125111Y2177042D01*
X1096383Y2196237D01*
X1068170Y2207924D01*
X1070696Y2220624D01*
X2660612D01*
X2661328Y2207924D01*
X2632082Y2188382D01*
X2605618Y2161918D01*
X2584824Y2130799D01*
X2570502Y2096221D01*
X2563200Y2059514D01*
Y2055377D01*
X2537799Y2029976D01*
X2365113D01*
X2343862Y2051228D01*
X2311938Y2069659D01*
X2276331Y2079200D01*
X2239469D01*
X2203862Y2069659D01*
X2171938Y2051228D01*
X2145872Y2025162D01*
X2127441Y1993238D01*
X2117900Y1957631D01*
Y1920769D01*
X2127441Y1885162D01*
X2145872Y1853238D01*
X2171938Y1827172D01*
X2203862Y1808741D01*
X2239469Y1799200D01*
X2276331D01*
X2311938Y1808741D01*
X2343862Y1827172D01*
X2365113Y1848424D01*
X2575400D01*
X2598894Y1851517D01*
X2620788Y1860586D01*
X2639589Y1875011D01*
X2647496Y1882919D01*
X2663201Y1872424D01*
X2697779Y1858102D01*
X2728624Y1851966D01*
Y1431283D01*
X2728100Y1418800D01*
X2448100D01*
Y1189371D01*
X2436367Y1184511D01*
X2248589Y1372289D01*
X2229788Y1386715D01*
X2207895Y1395783D01*
X2184400Y1398876D01*
X2183741D01*
X2169388Y1407163D01*
X2140140Y1415000D01*
X2109860D01*
X2080612Y1407163D01*
X2066259Y1398876D01*
X1778000D01*
X1754505Y1395783D01*
X1732612Y1386715D01*
X1713811Y1372289D01*
X1713811Y1372288D01*
X1406299Y1064776D01*
X1140300D01*
X1134402Y1064000D01*
X1050300D01*
Y1057972D01*
X1030300Y1037972D01*
X1030300Y1037972D01*
X1030299D01*
X1030299Y1037972D01*
X1030298Y1037973D01*
X1030300Y1037970D01*
Y974001D01*
Y910032D01*
X1030298Y910030D01*
X1030299Y910030D01*
X1030300D01*
X1050300Y890030D01*
Y884000D01*
X1134402D01*
X1140300Y883224D01*
X1443900D01*
X1467395Y886317D01*
X1489288Y895386D01*
X1508089Y909811D01*
X1680329Y1082052D01*
X1692033Y1075796D01*
X1689200Y1061551D01*
Y1029049D01*
X1695541Y997171D01*
X1707979Y967143D01*
X1726036Y940119D01*
X1749019Y917136D01*
X1776043Y899079D01*
X1806071Y886641D01*
X1837949Y880300D01*
X1870451D01*
X1902329Y886641D01*
X1932357Y899079D01*
X1933471Y899824D01*
X2114799D01*
X2308011Y706611D01*
X2326812Y692186D01*
X2348705Y683117D01*
X2372200Y680024D01*
X2480887D01*
X2502138Y658772D01*
X2529970Y642703D01*
X2531193Y630778D01*
X2530456Y628319D01*
X2511103Y617145D01*
X2487755Y593797D01*
X2471246Y565203D01*
X2468994Y556800D01*
X2707206D01*
X2704954Y565203D01*
X2688445Y593797D01*
X2665097Y617145D01*
X2645744Y628319D01*
X2645007Y630778D01*
X2646230Y642703D01*
X2674062Y658772D01*
X2700128Y684838D01*
X2718559Y716762D01*
X2728100Y752369D01*
Y789231D01*
X2718559Y824838D01*
X2700128Y856762D01*
X2674062Y882828D01*
X2659128Y891450D01*
Y904150D01*
X2674062Y912772D01*
X2700128Y938838D01*
X2708395Y953158D01*
X2760821D01*
X2784316Y956251D01*
X2806209Y965319D01*
X2825010Y979745D01*
X2883589Y1038324D01*
X2898015Y1057124D01*
X2907083Y1079018D01*
X2910176Y1102513D01*
Y1920481D01*
X2908718Y1931558D01*
X2921576Y1950802D01*
X2935898Y1985379D01*
X2943200Y2022087D01*
Y2059514D01*
X2935898Y2096221D01*
X2921576Y2130799D01*
X2900782Y2161918D01*
X2874318Y2188382D01*
X2845072Y2207924D01*
X2845788Y2220624D01*
X2934199D01*
X3063200Y2091623D01*
Y2022087D01*
Y1850800D01*
X3162424D01*
Y1488201D01*
X3095911Y1421689D01*
X3081485Y1402889D01*
X3072417Y1380995D01*
X3069324Y1357500D01*
Y1200100D01*
X3072417Y1176605D01*
X3081485Y1154711D01*
X3095911Y1135911D01*
X3210100Y1021722D01*
Y1006369D01*
X3219641Y970762D01*
X3238072Y938838D01*
X3264138Y912772D01*
X3279072Y904150D01*
Y891450D01*
X3264138Y882828D01*
X3238072Y856762D01*
X3219641Y824838D01*
X3210100Y789231D01*
Y752369D01*
X3219641Y716762D01*
X3238072Y684838D01*
X3264138Y658772D01*
X3279072Y650150D01*
Y637450D01*
X3264138Y628828D01*
X3238072Y602762D01*
X3219641Y570838D01*
X3210100Y535231D01*
Y498369D01*
X3219641Y462762D01*
X3238072Y430838D01*
X3264138Y404772D01*
X3296062Y386341D01*
X3331669Y376800D01*
X3368531D01*
X3404138Y386341D01*
X3436062Y404772D01*
X3462128Y430838D01*
X3480559Y462762D01*
X3490100Y498369D01*
Y535231D01*
X3480559Y570838D01*
X3462128Y602762D01*
X3436062Y628828D01*
X3421128Y637450D01*
Y650150D01*
X3436062Y658772D01*
X3462128Y684838D01*
X3473089Y703824D01*
X3488200D01*
X3511695Y706917D01*
X3533588Y715986D01*
X3552389Y730412D01*
X3661988Y840011D01*
X3662000Y840000D01*
X3662000Y840000D01*
X3753797D01*
X3754085Y839712D01*
X3768511Y820911D01*
X3830824Y758599D01*
Y720899D01*
X3817500D01*
X3793405Y696805D01*
X3760000D01*
X3753928Y700311D01*
X3749269Y701559D01*
X3731572Y706301D01*
X3708428D01*
X3686072Y700310D01*
X3666028Y688738D01*
X3649663Y672373D01*
X3641596Y658401D01*
X3720000D01*
Y618401D01*
X3760000D01*
Y539998D01*
X3759998Y539995D01*
X3760000Y539996D01*
X3760000D01*
X3784097Y515900D01*
X4022500D01*
Y720899D01*
X4012376D01*
Y796198D01*
X4012377Y796200D01*
X4009283Y819695D01*
X4000215Y841588D01*
X3985789Y860389D01*
X3923476Y922701D01*
Y930287D01*
X3944728Y951538D01*
X3960279Y978474D01*
X4572781D01*
X4578419Y972836D01*
X4605443Y954779D01*
X4635471Y942341D01*
X4667349Y936000D01*
X4699851D01*
X4731729Y942341D01*
X4761757Y954779D01*
X4788781Y972836D01*
X4811764Y995819D01*
X4829821Y1022843D01*
X4842259Y1052871D01*
X4848600Y1084749D01*
Y1117251D01*
X4842259Y1149129D01*
X4829821Y1179157D01*
X4811764Y1206181D01*
X4788781Y1229164D01*
X4761757Y1247221D01*
X4731729Y1259659D01*
X4699851Y1266000D01*
X4667349D01*
X4635471Y1259659D01*
X4605443Y1247221D01*
X4578419Y1229164D01*
X4555436Y1206181D01*
X4537379Y1179157D01*
X4529455Y1160026D01*
X3900478D01*
X3886738Y1167959D01*
X3851131Y1177500D01*
X3814269D01*
X3778662Y1167959D01*
X3746738Y1149528D01*
X3720672Y1123462D01*
X3719844Y1122027D01*
X3707576Y1125314D01*
Y1241199D01*
X3896888Y1430511D01*
X3896889Y1430511D01*
X3911315Y1449312D01*
X3920383Y1471206D01*
X3923477Y1494700D01*
X3923476Y1494702D01*
Y1730287D01*
X3944728Y1751538D01*
X3963159Y1783462D01*
X3972700Y1819069D01*
Y1855931D01*
X3963159Y1891538D01*
X3944728Y1923462D01*
X3918662Y1949528D01*
X3886738Y1967959D01*
X3851131Y1977500D01*
X3814269D01*
X3778662Y1967959D01*
X3746738Y1949528D01*
X3720672Y1923462D01*
X3702241Y1891538D01*
X3692700Y1855931D01*
Y1819069D01*
X3702241Y1783462D01*
X3720672Y1751538D01*
X3741924Y1730287D01*
Y1532301D01*
X3552611Y1342989D01*
X3538185Y1324188D01*
X3529117Y1302295D01*
X3526024Y1278800D01*
Y960801D01*
X3450599Y885376D01*
X3444612D01*
X3444610Y885377D01*
X3434054Y883987D01*
X3421128Y891450D01*
Y904150D01*
X3436062Y912772D01*
X3462128Y938838D01*
X3480559Y970762D01*
X3490100Y1006369D01*
Y1043231D01*
X3480559Y1078838D01*
X3462128Y1110762D01*
X3436062Y1136828D01*
X3421128Y1145450D01*
Y1158150D01*
X3436062Y1166772D01*
X3462128Y1192838D01*
X3480559Y1224762D01*
X3490100Y1260369D01*
Y1297231D01*
X3480559Y1332838D01*
X3462128Y1364762D01*
X3436062Y1390828D01*
X3404138Y1409259D01*
X3368531Y1418800D01*
X3349636D01*
X3341462Y1431500D01*
X3343976Y1450601D01*
Y1850800D01*
X3443200D01*
Y1950024D01*
X3616900D01*
X3640395Y1953117D01*
X3662288Y1962186D01*
X3681089Y1976611D01*
X3719577Y2015100D01*
X3749631D01*
X3785238Y2024641D01*
X3817162Y2043072D01*
X3843228Y2069138D01*
X3861659Y2101062D01*
X3871200Y2136669D01*
Y2173531D01*
X3861659Y2209138D01*
X3843228Y2241062D01*
X3817162Y2267128D01*
X3785238Y2285559D01*
X3749631Y2295100D01*
X3712769D01*
X3677162Y2285559D01*
X3645238Y2267128D01*
X3619172Y2241062D01*
X3600741Y2209138D01*
X3591200Y2173531D01*
Y2143477D01*
X3579299Y2131576D01*
X3443200D01*
Y2230800D01*
X3180777D01*
X3035989Y2375589D01*
X3017188Y2390015D01*
X2995294Y2399083D01*
X2971800Y2402176D01*
X356623D01*
X356621Y2402177D01*
X333126Y2399083D01*
X311233Y2390015D01*
X292432Y2375589D01*
X292431Y2375588D01*
X155511Y2238668D01*
X141085Y2219867D01*
X132017Y2197974D01*
X128924Y2174479D01*
Y1304300D01*
X132017Y1280806D01*
X141085Y1258912D01*
X155511Y1240112D01*
X231311Y1164311D01*
X322479Y1073143D01*
X320002Y1060687D01*
X310412Y1056715D01*
X291612Y1042289D01*
X88211Y838889D01*
X76380Y823469D01*
X63680Y827706D01*
Y2501720D01*
X5270320D01*
Y60980D01*
D02*
G37*
%LPC*%
G36*
X4989194Y2410000D02*
X4962206D01*
X4936136Y2403015D01*
X4927929Y2398276D01*
X4683600D01*
X4660105Y2395183D01*
X4638212Y2386115D01*
X4619411Y2371689D01*
X4542823Y2295100D01*
X4512769D01*
X4477162Y2285559D01*
X4445238Y2267128D01*
X4419172Y2241062D01*
X4400741Y2209138D01*
X4391200Y2173531D01*
Y2136669D01*
X4400741Y2101062D01*
X4419172Y2069138D01*
X4445238Y2043072D01*
X4477162Y2024641D01*
X4512769Y2015100D01*
X4549631D01*
X4585238Y2024641D01*
X4617162Y2043072D01*
X4643228Y2069138D01*
X4661659Y2101062D01*
X4671200Y2136669D01*
Y2166723D01*
X4721201Y2216724D01*
X4927929D01*
X4936136Y2211985D01*
X4962206Y2205000D01*
X4989194D01*
X5015264Y2211985D01*
X5038636Y2225480D01*
X5057720Y2244564D01*
X5071215Y2267937D01*
X5078200Y2294006D01*
Y2320994D01*
X5071215Y2347064D01*
X5057720Y2370436D01*
X5038636Y2389520D01*
X5015264Y2403015D01*
X4989194Y2410000D01*
D02*
G37*
G36*
X1184180Y2000800D02*
X1053300D01*
Y1869920D01*
X1064462Y1872141D01*
X1096383Y1885363D01*
X1125111Y1904558D01*
X1149542Y1928989D01*
X1168737Y1957717D01*
X1181959Y1989638D01*
X1184180Y2000800D01*
D02*
G37*
G36*
X973300D02*
X842420D01*
X844641Y1989638D01*
X857863Y1957717D01*
X877058Y1928989D01*
X901489Y1904558D01*
X930217Y1885363D01*
X962138Y1872141D01*
X973300Y1869920D01*
Y2000800D01*
D02*
G37*
G36*
X2297900Y1715406D02*
Y1636300D01*
X2377006D01*
X2374754Y1644703D01*
X2358245Y1673297D01*
X2334897Y1696645D01*
X2306302Y1713154D01*
X2297900Y1715406D01*
D02*
G37*
G36*
X2217900D02*
X2209497Y1713154D01*
X2180903Y1696645D01*
X2157555Y1673297D01*
X2141046Y1644703D01*
X2138794Y1636300D01*
X2217900D01*
Y1715406D01*
D02*
G37*
G36*
X2377006Y1556300D02*
X2297900D01*
Y1477194D01*
X2306302Y1479446D01*
X2334897Y1495955D01*
X2358245Y1519303D01*
X2374754Y1547898D01*
X2377006Y1556300D01*
D02*
G37*
G36*
X2217900D02*
X2138794D01*
X2141046Y1547898D01*
X2157555Y1519303D01*
X2180903Y1495955D01*
X2209497Y1479446D01*
X2217900Y1477194D01*
Y1556300D01*
D02*
G37*
G36*
X1476331Y2079200D02*
X1439469D01*
X1403862Y2069659D01*
X1371938Y2051228D01*
X1345872Y2025162D01*
X1327441Y1993238D01*
X1317900Y1957631D01*
Y1920769D01*
X1327441Y1885162D01*
X1345872Y1853238D01*
X1367124Y1831987D01*
Y1703513D01*
X1345872Y1682262D01*
X1327441Y1650338D01*
X1317900Y1614731D01*
Y1577869D01*
X1327441Y1542262D01*
X1345872Y1510338D01*
X1371938Y1484272D01*
X1403862Y1465841D01*
X1439469Y1456300D01*
X1476331D01*
X1511938Y1465841D01*
X1543862Y1484272D01*
X1569928Y1510338D01*
X1588359Y1542262D01*
X1597900Y1577869D01*
Y1614731D01*
X1588359Y1650338D01*
X1569928Y1682262D01*
X1548676Y1703513D01*
Y1831987D01*
X1569928Y1853238D01*
X1588359Y1885162D01*
X1597900Y1920769D01*
Y1957631D01*
X1588359Y1993238D01*
X1569928Y2025162D01*
X1543862Y2051228D01*
X1511938Y2069659D01*
X1476331Y2079200D01*
D02*
G37*
G36*
X5078200Y2156000D02*
X4873200D01*
Y1951000D01*
X4884924D01*
Y1930701D01*
X4720223Y1766000D01*
X4518600D01*
Y1617251D01*
Y1584749D01*
Y1436000D01*
X4848600D01*
Y1637623D01*
X5039888Y1828911D01*
X5039889Y1828912D01*
X5054315Y1847712D01*
X5063383Y1869606D01*
X5066477Y1893100D01*
X5066476Y1893102D01*
Y1951000D01*
X5078200D01*
Y2156000D01*
D02*
G37*
G36*
X950300Y1037972D02*
X944003Y1034336D01*
X929965Y1020298D01*
X926329Y1014001D01*
X950300D01*
Y1037972D01*
D02*
G37*
G36*
X724504Y950600D02*
X686100D01*
Y912195D01*
X700072Y920262D01*
X716437Y936628D01*
X724504Y950600D01*
D02*
G37*
G36*
X950300Y934001D02*
X926329D01*
X929965Y927705D01*
X944003Y913666D01*
X950300Y910030D01*
Y934001D01*
D02*
G37*
G36*
X4723600Y746390D02*
Y641000D01*
X4828990D01*
X4828220Y644870D01*
X4816883Y672241D01*
X4800423Y696874D01*
X4779474Y717823D01*
X4754841Y734283D01*
X4727470Y745620D01*
X4723600Y746390D01*
D02*
G37*
G36*
X4643600D02*
X4639730Y745620D01*
X4612359Y734283D01*
X4587726Y717823D01*
X4566777Y696874D01*
X4550317Y672241D01*
X4538980Y644870D01*
X4538210Y641000D01*
X4643600D01*
Y746390D01*
D02*
G37*
G36*
X3680000Y578401D02*
X3641596D01*
X3649663Y564429D01*
X3666028Y548063D01*
X3680000Y539996D01*
Y578401D01*
D02*
G37*
G36*
X4828990Y561000D02*
X4723600D01*
Y455610D01*
X4727470Y456380D01*
X4754841Y467717D01*
X4779474Y484177D01*
X4800423Y505126D01*
X4816883Y529759D01*
X4828220Y557130D01*
X4828990Y561000D01*
D02*
G37*
G36*
X4643600D02*
X4538210D01*
X4538980Y557130D01*
X4550317Y529759D01*
X4566777Y505126D01*
X4587726Y484177D01*
X4612359Y467717D01*
X4639730Y456380D01*
X4643600Y455610D01*
Y561000D01*
D02*
G37*
G36*
X2707206Y476800D02*
X2628100D01*
Y397694D01*
X2636502Y399946D01*
X2665097Y416455D01*
X2688445Y439803D01*
X2704954Y468398D01*
X2707206Y476800D01*
D02*
G37*
G36*
X2548100D02*
X2468994D01*
X2471246Y468398D01*
X2487755Y439803D01*
X2511103Y416455D01*
X2539697Y399946D01*
X2548100Y397694D01*
Y476800D01*
D02*
G37*
%LPD*%
D10*
X4683600Y1601000D02*
D03*
D11*
X3253200Y2040800D02*
D03*
X513300D02*
D03*
D12*
X304800Y215900D02*
X698500D01*
X152400Y368300D02*
X304800Y215900D01*
X152400Y368300D02*
Y774700D01*
X2607234Y1043934D02*
X2760821D01*
X2753200Y1986681D02*
X2819400Y1920481D01*
X2753200Y1986681D02*
Y2040800D01*
X2819400Y1102513D02*
Y1920481D01*
X2760821Y1043934D02*
X2819400Y1102513D01*
X3160100Y1200100D02*
X3335399Y1024800D01*
X3160100Y1357500D02*
X3253200Y1450601D01*
X3160100Y1200100D02*
Y1357500D01*
X3253200Y1450601D02*
Y2040800D01*
X3335399Y1024800D02*
X3350100D01*
X863600Y558800D02*
X1054100Y749300D01*
X1337700D02*
X1591700Y495300D01*
X1054100Y749300D02*
X1337700D01*
X863600Y381000D02*
Y558800D01*
X698500Y215900D02*
X863600Y381000D01*
X355801Y978101D02*
X433600D01*
X152400Y774700D02*
X355801Y978101D01*
X433600D02*
X446100Y990601D01*
X295500Y1228500D02*
X433600Y1090400D01*
Y1003100D02*
X446100Y990601D01*
X433600Y1003100D02*
Y1090400D01*
X295500Y1228500D02*
X969700D01*
X219700Y1304300D02*
Y2174479D01*
Y1304300D02*
X295500Y1228500D01*
X969700D02*
X1159700Y1418500D01*
X219700Y2174479D02*
X356621Y2311400D01*
X3864450Y1069250D02*
X4651850D01*
X4683600Y1101000D01*
X3921600Y620000D02*
Y796200D01*
X3920000Y618400D02*
X3921600Y620000D01*
X3832700Y885100D02*
Y1037500D01*
X3864450Y1069250D01*
X3832700Y885100D02*
X3921600Y796200D01*
X3616800Y923200D02*
Y1278800D01*
X3253200Y2040800D02*
X3616900D01*
X3488200Y794600D02*
X3616800Y923200D01*
X3444610Y794600D02*
X3488200D01*
X3242400Y2040800D02*
X3253200D01*
X2971800Y2311400D02*
X3242400Y2040800D01*
X3616900D02*
X3731200Y2155100D01*
X3832700Y1494700D02*
Y1837500D01*
X3616800Y1278800D02*
X3832700Y1494700D01*
X2677000Y2040800D02*
X2753200D01*
X2257900Y1939200D02*
X2575400D01*
X2677000Y2040800D01*
X4975700Y1893100D02*
Y2053500D01*
X4531200Y2155100D02*
X4683600Y2307500D01*
Y1601000D02*
X4975700Y1893100D01*
X2372200Y770800D02*
X2588100D01*
X1909547Y990600D02*
X2152400D01*
X2372200Y770800D01*
X2184400Y1308100D02*
X2451124Y1041377D01*
X1778000Y1308100D02*
X2184400D01*
X1443900Y974000D02*
X1778000Y1308100D01*
X3439944Y789934D02*
X3444610Y794600D01*
X3369234Y789934D02*
X3439944D01*
X3350100Y770800D02*
X3369234Y789934D01*
X2451124Y1041377D02*
X2571523D01*
X1996609Y466599D02*
X2047409D01*
X2067946Y487135D01*
X2571523Y1041377D02*
X2588100Y1024800D01*
X2607234Y1043934D01*
X1771310Y241300D02*
X1996609Y466599D01*
X1409700Y241300D02*
X1771310D01*
X1165700Y502440D02*
X1215700Y452440D01*
Y435300D02*
Y452440D01*
Y435300D02*
X1409700Y241300D01*
X1165700Y502440D02*
Y529500D01*
X356621Y2311400D02*
X2971800D01*
X1140300Y974000D02*
X1443900D01*
X4683600Y2307500D02*
X4975700D01*
X513300Y1549160D02*
Y2040800D01*
X409700Y1445560D02*
X513300Y1549160D01*
X409700Y1418500D02*
Y1445560D01*
X1457900Y1596300D02*
Y1939200D01*
D13*
X2125000Y1300000D02*
D03*
D14*
X646100Y990599D02*
D03*
X4975700Y2307500D02*
D03*
X3720000Y618401D02*
D03*
D15*
X446100Y990601D02*
D03*
X3920000Y618400D02*
D03*
D16*
X4975700Y2053500D02*
D03*
D17*
X3832700Y1037500D02*
D03*
Y1837500D02*
D03*
X2257900Y1596300D02*
D03*
X1457900D02*
D03*
Y1939200D02*
D03*
X2257900D02*
D03*
X3350100Y1278800D02*
D03*
Y1024800D02*
D03*
Y770800D02*
D03*
Y516800D02*
D03*
X2588100D02*
D03*
Y770800D02*
D03*
Y1024800D02*
D03*
X4531200Y2155100D02*
D03*
X3731200D02*
D03*
X409700Y1418500D02*
D03*
X1165700Y529500D02*
D03*
X365700D02*
D03*
D18*
X2588100Y1278800D02*
D03*
X1159700Y1418500D02*
D03*
D19*
X4683600Y1601000D02*
D03*
Y1101000D02*
D03*
Y601000D02*
D03*
X1854200Y1045300D02*
D03*
X2116700Y495300D02*
D03*
X1591700D02*
D03*
D20*
X2753200Y2040800D02*
D03*
X3253200D02*
D03*
X513300D02*
D03*
X1013300D02*
D03*
D21*
X990300Y974001D02*
D03*
D22*
X1140300Y974000D02*
D03*
%TF.MD5,2284c383a5ba5a8611e9304684e1fd56*%
M02*
