%TF.GenerationSoftware,Altium Limited,Altium Designer,21.4.1 (30)*%
G04 Layer_Color=0*
%FSLAX45Y45*%
%MOMM*%
%TF.SameCoordinates,0739F2E6-BFB0-420A-A0D3-3909B3713C89*%
%TF.FilePolarity,Positive*%
%TF.FileFunction,Plated,1,2,PTH,Drill*%
%TF.Part,Single*%
G01*
G75*
%TA.AperFunction,OtherDrill,Pad Free-4 (21.25mm,13mm)*%
%ADD11C,0.80000*%
%TA.AperFunction,ComponentDrill*%
%ADD12C,0.45000*%
%ADD13C,0.45000*%
%ADD14C,1.25000*%
%ADD15C,1.25000*%
%ADD16C,1.00000*%
%ADD17C,1.00000*%
%ADD18C,1.20000*%
D11*
X2125000Y1300000D02*
D03*
D12*
X646100Y990599D02*
D03*
X446100Y990601D02*
D03*
X3920000Y618400D02*
D03*
X3720000Y618401D02*
D03*
X990300Y974001D02*
D03*
X1140300Y974000D02*
D03*
D13*
X4975700Y2307500D02*
D03*
Y2053500D02*
D03*
D14*
X3832700Y1037500D02*
D03*
Y1837500D02*
D03*
D15*
X2257900Y1596300D02*
D03*
X1457900D02*
D03*
Y1939200D02*
D03*
X2257900D02*
D03*
X4531200Y2155100D02*
D03*
X3731200D02*
D03*
X2753200Y2040800D02*
D03*
X3253200D02*
D03*
X513300D02*
D03*
X1013300D02*
D03*
X1159700Y1418500D02*
D03*
X409700D02*
D03*
X1165700Y529500D02*
D03*
X365700D02*
D03*
D16*
X3350100Y1278800D02*
D03*
Y1024800D02*
D03*
Y770800D02*
D03*
Y516800D02*
D03*
X2588100D02*
D03*
Y770800D02*
D03*
Y1024800D02*
D03*
Y1278800D02*
D03*
D17*
X4683600Y1601000D02*
D03*
Y1101000D02*
D03*
Y601000D02*
D03*
D18*
X1854200Y1045300D02*
D03*
X2116700Y495300D02*
D03*
X1591700D02*
D03*
%TF.MD5,c7235ff28f75008ff68b3230002d2c35*%
M02*
