G04*
G04 #@! TF.GenerationSoftware,Altium Limited,Altium Designer,21.4.1 (30)*
G04*
G04 Layer_Color=2752767*
%FSLAX44Y44*%
%MOMM*%
G71*
G04*
G04 #@! TF.SameCoordinates,D9A170D6-AE8E-46F5-B08F-9728CEAA49E7*
G04*
G04*
G04 #@! TF.FilePolarity,Positive*
G04*
G01*
G75*
%ADD14C,0.0508*%
%ADD15C,0.0677*%
D14*
X210468Y127968D02*
Y132032D01*
X214532D01*
Y127968D01*
X210468D01*
X383270Y101718D02*
X381238Y105782D01*
X385302D01*
X383270Y101718D01*
Y181718D02*
X381238Y185782D01*
X385302D01*
X383270Y181718D01*
X225790Y157598D02*
X223758Y161662D01*
X227822D01*
X225790Y157598D01*
X145790D02*
X143758Y161662D01*
X147822D01*
X145790Y157598D01*
Y191888D02*
X143758Y195952D01*
X147822D01*
X145790Y191888D01*
X225790D02*
X223758Y195952D01*
X227822D01*
X225790Y191888D01*
X335010Y125848D02*
X336026Y126864D01*
X337042D01*
X336026Y127880D01*
X337042Y128896D01*
X336026D01*
X335010Y129912D01*
X333994Y128896D01*
X332978D01*
X333994Y127880D01*
X332978Y126864D01*
X333994D01*
X335010Y125848D01*
Y100448D02*
X336026Y101464D01*
X337042D01*
X336026Y102480D01*
X337042Y103496D01*
X336026D01*
X335010Y104512D01*
X333994Y103496D01*
X332978D01*
X333994Y102480D01*
X332978Y101464D01*
X333994D01*
X335010Y100448D01*
Y75048D02*
X336026Y76064D01*
X337042D01*
X336026Y77080D01*
X337042Y78096D01*
X336026D01*
X335010Y79112D01*
X333994Y78096D01*
X332978D01*
X333994Y77080D01*
X332978Y76064D01*
X333994D01*
X335010Y75048D01*
Y49648D02*
X336026Y50664D01*
X337042D01*
X336026Y51680D01*
X337042Y52696D01*
X336026D01*
X335010Y53712D01*
X333994Y52696D01*
X332978D01*
X333994Y51680D01*
X332978Y50664D01*
X333994D01*
X335010Y49648D01*
X258810D02*
X259826Y50664D01*
X260842D01*
X259826Y51680D01*
X260842Y52696D01*
X259826D01*
X258810Y53712D01*
X257794Y52696D01*
X256778D01*
X257794Y51680D01*
X256778Y50664D01*
X257794D01*
X258810Y49648D01*
Y75048D02*
X259826Y76064D01*
X260842D01*
X259826Y77080D01*
X260842Y78096D01*
X259826D01*
X258810Y79112D01*
X257794Y78096D01*
X256778D01*
X257794Y77080D01*
X256778Y76064D01*
X257794D01*
X258810Y75048D01*
Y100448D02*
X259826Y101464D01*
X260842D01*
X259826Y102480D01*
X260842Y103496D01*
X259826D01*
X258810Y104512D01*
X257794Y103496D01*
X256778D01*
X257794Y102480D01*
X256778Y101464D01*
X257794D01*
X258810Y100448D01*
Y125848D02*
X259826Y126864D01*
X260842D01*
X259826Y127880D01*
X260842Y128896D01*
X259826D01*
X258810Y129912D01*
X257794Y128896D01*
X256778D01*
X257794Y127880D01*
X256778Y126864D01*
X257794D01*
X258810Y125848D01*
X468360Y158068D02*
X469376Y159084D01*
X470392D01*
X469376Y160100D01*
X470392Y161116D01*
X469376D01*
X468360Y162132D01*
X467344Y161116D01*
X466328D01*
X467344Y160100D01*
X466328Y159084D01*
X467344D01*
X468360Y158068D01*
Y108068D02*
X469376Y109084D01*
X470392D01*
X469376Y110100D01*
X470392Y111116D01*
X469376D01*
X468360Y112132D01*
X467344Y111116D01*
X466328D01*
X467344Y110100D01*
X466328Y109084D01*
X467344D01*
X468360Y108068D01*
Y58068D02*
X469376Y59084D01*
X470392D01*
X469376Y60100D01*
X470392Y61116D01*
X469376D01*
X468360Y62132D01*
X467344Y61116D01*
X466328D01*
X467344Y60100D01*
X466328Y59084D01*
X467344D01*
X468360Y58068D01*
X453120Y213478D02*
X451088Y217542D01*
X455152D01*
X453120Y213478D01*
X373120D02*
X371088Y217542D01*
X375152D01*
X373120Y213478D01*
X275320Y202048D02*
X273288Y206112D01*
X277352D01*
X275320Y202048D01*
X325320D02*
X323288Y206112D01*
X327352D01*
X325320Y202048D01*
X183388Y102498D02*
X184404Y104530D01*
X183388Y106562D01*
X185420Y105546D01*
X187452Y106562D01*
X186436Y104530D01*
X187452Y102498D01*
X185420Y103514D01*
X183388Y102498D01*
X209638Y47498D02*
X210654Y49530D01*
X209638Y51562D01*
X211670Y50546D01*
X213702Y51562D01*
X212686Y49530D01*
X213702Y47498D01*
X211670Y48514D01*
X209638Y47498D01*
X157138D02*
X158154Y49530D01*
X157138Y51562D01*
X159170Y50546D01*
X161202Y51562D01*
X160186Y49530D01*
X161202Y47498D01*
X159170Y48514D01*
X157138Y47498D01*
X51330Y202048D02*
X49298Y206112D01*
X53362D01*
X51330Y202048D01*
X101330D02*
X99298Y206112D01*
X103362D01*
X101330Y202048D01*
X115970Y139818D02*
X113938Y143882D01*
X118002D01*
X115970Y139818D01*
X40970D02*
X38938Y143882D01*
X43002D01*
X40970Y139818D01*
X116570Y50918D02*
X114538Y54982D01*
X118602D01*
X116570Y50918D01*
X36570D02*
X34538Y54982D01*
X38602D01*
X36570Y50918D01*
D15*
X66642Y99060D02*
G03*
X66642Y99060I-2032J0D01*
G01*
X46642Y99060D02*
G03*
X46642Y99060I-2032J0D01*
G01*
X499602Y230750D02*
G03*
X499602Y230750I-2032J0D01*
G01*
Y205350D02*
G03*
X499602Y205350I-2032J0D01*
G01*
X394032Y61840D02*
G03*
X394032Y61840I-2032J0D01*
G01*
X374032Y61840D02*
G03*
X374032Y61840I-2032J0D01*
G01*
X101062Y97400D02*
G03*
X101062Y97400I-2032J0D01*
G01*
X116062Y97400D02*
G03*
X116062Y97400I-2032J0D01*
G01*
M02*
